<?xml version="1.0" encoding="utf-8" ?>
<svg xmlns="http://www.w3.org/2000/svg" xmlns:xlink="http://www.w3.org/1999/xlink" width="1024" height="1024">
	<path transform="scale(2 2)" d="M371.354 251.595C380.821 254.017 377.23 274.831 377.231 283.39L377.229 328.884C377.231 334.338 377.788 366.774 376.807 369.798C375.887 372.639 372.796 373.399 370.177 373.572C362.775 372.954 364.765 361.658 364.765 356.754L364.755 284.393C364.754 275.437 360.776 253.225 371.354 251.595Z"/>
	<path transform="scale(2 2)" d="M141.016 360.568C149.065 361.973 147.936 366.403 147.921 373.45L147.867 405.165C147.725 430.523 166.304 427.256 185.032 427.254L332.453 427.263C345.754 427.276 359.437 428.586 364.758 412.827C365.923 405.435 360.481 391.218 371.354 389.845L371.967 390.043C379.959 392.58 377.843 407.417 376.707 413.913C374.269 427.863 361.213 439.046 347.094 439.617C343.723 439.753 340.288 439.555 336.91 439.548L191.3 439.536C182.375 439.536 172.04 440.014 163.262 439.4C149.33 438.425 137.058 425.679 135.722 411.989C135.15 406.128 134.485 367.415 136.183 364.114C137.202 362.132 138.957 361.188 141.016 360.568Z"/>
	<path transform="scale(2 2)" d="M134.513 118.419C134.475 103.949 132.643 91.5696 143.688 80.2102C150.296 73.4138 158.353 70.575 167.718 70.4959L331.753 70.4967C345.86 70.4878 357.067 69.0176 368.11 80.0022C378.316 90.1536 377.237 101.884 377.234 115.026L377.227 137.658C389.572 137.556 385.682 150.678 385.721 160.072L385.773 175.127C385.778 182.403 386.496 189.589 377.227 189.777C376.237 201.518 382.459 232.407 371.354 235.706C364.419 235.463 364.619 229.943 364.758 224.38L364.765 112.983C364.766 108.13 365.136 102.863 364.377 98.0697C361.569 80.3238 341.799 82.6874 329.224 82.7069L168.383 82.6797C155.343 82.7603 146.698 91.5549 146.923 104.583C147.222 121.886 147.08 139.202 147.08 156.509L147.078 290.177C147.077 298.242 150.172 316.916 141.016 317.935C133.073 316.176 135.228 306.606 135.239 300.508L135.253 207.338C124.765 206.927 126.225 200.064 126.482 191.512C126.663 185.49 129.59 184.286 135.253 184.661C135.16 181.581 135.16 178.491 135.253 175.41C130.149 174.542 126.763 174.254 126.516 168.349C126.108 158.58 124.125 151.592 135.253 151.748L135.253 142.228L135.013 142.243C129.56 142.582 126.684 141.306 126.493 135.443C126.222 127.086 124.175 118.171 134.513 118.419Z"/>
	<path fill="#FE020A" transform="scale(2 2)" d="M141.016 317.935C150.172 316.916 147.077 298.242 147.078 290.177L147.08 156.509C147.08 139.202 147.222 121.886 146.923 104.583C146.698 91.5549 155.343 82.7603 168.383 82.6797L329.224 82.7069C341.799 82.6874 361.569 80.3238 364.377 98.0697C365.136 102.863 364.766 108.13 364.765 112.983L364.758 224.38L351.664 224.38L351.692 149.568C351.776 123.768 341.125 125.29 317.848 125.323L216.236 125.336C204.675 125.336 193.084 125.144 181.527 125.343C156.191 125.777 160.752 145.652 160.766 163.771L160.757 217.004C160.753 220.635 161.36 230.793 160.765 233.69C156.44 244.818 158.237 254.16 158.24 266.089L158.254 370.294C158.254 385.622 153.464 409.625 171.094 416.261C178.132 418.91 200.094 417.49 208.273 417.486L321.994 417.479C331.661 417.48 341.488 417.882 351.137 417.441C357.173 417.165 359.649 415.109 364.758 412.827C359.437 428.586 345.754 427.276 332.453 427.263L185.032 427.254C166.304 427.256 147.725 430.523 147.867 405.165L147.921 373.45C147.936 366.403 149.065 361.973 141.016 360.568C141.692 357.207 140.649 350.41 141.016 346.236C133.39 343.476 133.273 333.874 141.016 333.134C141.054 328.069 140.866 322.999 141.016 317.935Z"/>
	<path transform="scale(2 2)" d="M298.199 95.4983C306.153 96.4504 305.418 106.021 298.199 107.351C289.985 106.74 290.315 96.9083 298.199 95.4983Z"/>
	<path transform="scale(2 2)" d="M141.016 333.134C149.936 333.717 150.125 345.85 141.016 346.236C133.39 343.476 133.273 333.874 141.016 333.134Z"/>
	<path transform="scale(2 2)" d="M172.784 95.4983C175.674 95.3046 181.236 94.8486 183.757 95.9108C189.564 98.3575 187.82 105.335 182.802 107.351C179.427 107.528 174.895 107.896 171.699 106.893C164.932 104.77 167.556 97.7755 172.784 95.4983Z"/>
	<path transform="scale(2 2)" d="M238.388 95.4983L260.335 95.509C265.055 95.4743 277.707 93.313 278.923 100.095C279.658 104.195 277.43 106.873 273.521 107.351L249.914 107.34C246.219 107.336 242.256 107.687 238.6 107.32C231.135 106.572 231.568 96.7666 238.388 95.4983Z"/>
	<path transform="scale(2 2)" d="M160.765 233.69C161.36 230.793 160.753 220.635 160.757 217.004L160.766 163.771C160.752 145.652 156.191 125.777 181.527 125.343C193.084 125.144 204.675 125.336 216.236 125.336L317.848 125.323C341.125 125.29 351.776 123.768 351.692 149.568L351.664 224.38C350.93 248.438 332.972 245.808 314.916 245.81L211.822 245.804C200.439 245.809 188.886 246.216 177.519 245.746C169.335 245.407 164.088 240.859 160.765 233.69Z"/>
	<path fill="#7A7A7B" transform="scale(2 2)" d="M252.107 207.338C268.956 205.288 282.163 217.382 284.248 233.69L259.562 233.69L226.147 233.69C227.335 219.812 238.422 209.113 252.107 207.338Z"/>
	<path fill="white" transform="scale(2 2)" d="M177.836 137.658L317.626 137.653C323.414 137.647 329.433 137.26 335.186 137.747C342.23 138.344 339.552 155.454 339.546 160.999L339.551 217.965C339.576 236.179 337.72 233.702 321.021 233.703L297.062 233.69C296.194 231.1 295.77 228.442 295.144 225.792C285.217 183.795 220.016 183.726 213.672 233.69L190.462 233.703C170.011 233.767 172.725 234.945 172.77 216.133L172.781 157.773C172.778 151.929 170.037 138.053 177.836 137.658Z"/>
	<path transform="scale(2 2)" d="M314.333 156.3C324.335 155.251 321.875 169.098 321.769 175.41C320.562 177.472 319.286 178.465 317.064 179.297C307.822 180.617 305.85 160.288 314.333 156.3Z"/>
	<path transform="scale(2 2)" d="M204.865 151.748C209.203 150.974 212.942 155.004 211.053 159.346C209.679 162.503 200.446 172.204 196.556 173.611C181.284 173.461 196.569 153.534 204.865 151.748Z"/>
	<path transform="scale(2 2)" d="M223.567 165.555C227.767 165.335 231.766 168.704 230.035 173.221C228.927 176.112 204.62 201.17 200.002 203.284C194.939 203.684 191.308 199.043 193.853 194.209C195.499 191.082 218.814 167.086 223.567 165.555Z"/>
	<path fill="#BCDEF6" transform="scale(2 2)" d="M351.664 224.38L364.758 224.38C364.619 229.943 364.419 235.463 371.354 235.706C371.513 240.768 371.725 246.343 371.168 251.366L371.354 251.595C360.776 253.225 364.754 275.437 364.755 284.393L364.765 356.754C364.765 361.658 362.775 372.954 370.177 373.572C369.9 374.308 368.824 389.242 371.354 389.845C360.481 391.218 365.923 405.435 364.758 412.827C359.649 415.109 357.173 417.165 351.137 417.441C341.488 417.882 331.661 417.48 321.994 417.479L208.273 417.486C200.094 417.49 178.132 418.91 171.094 416.261C153.464 409.625 158.254 385.622 158.254 370.294L158.24 266.089C158.237 254.16 156.44 244.818 160.765 233.69C164.088 240.859 169.335 245.407 177.519 245.746C188.886 246.216 200.439 245.809 211.822 245.804L314.916 245.81C332.972 245.808 350.93 248.438 351.664 224.38Z"/>
	<path transform="scale(2 2)" d="M198.363 400.663C202.62 400.668 211.778 399.71 215.093 401.92C220.428 405.476 217.124 412.083 211.697 412.827C207.587 412.8 197.68 413.92 194.68 411.542C189.865 407.726 192.844 401.204 198.363 400.663Z"/>
	<path transform="scale(2 2)" d="M285.335 400.663L300.197 400.625C302.681 400.609 305.393 400.325 307.848 400.676C312.87 401.393 314.697 407.575 310.98 411.122C307.331 414.604 298.601 412.792 294.057 412.81L259.562 412.827L246.379 412.856C242.824 412.897 236.39 413.949 233.403 411.472C229.435 408.182 231.26 401.697 236.395 400.875C240.867 400.16 247.357 400.655 252.022 400.654L285.335 400.663Z"/>
	<path transform="scale(2 2)" d="M221.935 288.748L221.574 288.753C208.608 288.821 214.163 278.195 220.521 272.53C255.587 241.288 311.288 266.963 307.855 315.447C305.794 344.557 279.803 364.914 251.211 362.615C223.611 360.396 201.168 335.156 203.528 307.294C203.84 303.606 204.322 297.311 207.404 294.779C211.127 291.722 215.663 294.68 217.033 298.516C216.816 300.586 216.361 302.635 215.965 304.677C222.755 304.479 232.031 308.008 225.395 314.901C223.121 317.264 218.953 316.654 215.965 316.632C223.662 366.672 298.234 358.192 295.968 309.642C294.352 275.036 253.953 258.033 227.991 282.241C225.834 284.253 223.901 286.55 221.935 288.748Z"/>
	<path fill="#FE020A" transform="scale(2 2)" d="M221.935 288.748C223.901 286.55 225.834 284.253 227.991 282.241C253.953 258.033 294.352 275.036 295.968 309.642C298.234 358.192 223.662 366.672 215.965 316.632C218.953 316.654 223.121 317.264 225.395 314.901C232.031 308.008 222.755 304.479 215.965 304.677C216.361 302.635 216.816 300.586 217.033 298.516C218.866 295.427 220.141 291.911 221.935 288.748Z"/>
	<path transform="scale(2 2)" d="M253.387 282.583C260.234 281.408 268.638 284.281 273.955 288.531C293.522 304.171 284.104 336.268 259.562 338.737C221.188 341.8 215.986 287.999 253.387 282.583Z"/>
	<path fill="white" transform="scale(2 2)" d="M255.686 294.599C276.942 295.171 278.203 324.119 257.72 326.761C235.316 327.276 234.54 296.546 255.686 294.599Z"/>
</svg>
